<mxfile host="Electron" modified="2023-04-20T11:57:06.975Z" agent="Mozilla/5.0 (Windows NT 10.0; Win64; x64) AppleWebKit/537.36 (KHTML, like Gecko) draw.io/21.1.2 Chrome/106.0.5249.199 Electron/21.4.3 Safari/537.36" etag="30u-g7xuj-i9v-aLaiKa" version="21.1.2" type="device">
  <diagram name="Página-1" id="tWcXgvRmkainPIyfIts9">
    <mxGraphModel dx="1434" dy="870" grid="1" gridSize="10" guides="1" tooltips="1" connect="1" arrows="1" fold="1" page="1" pageScale="1" pageWidth="827" pageHeight="1169" math="0" shadow="0">
      <root>
        <mxCell id="0" />
        <mxCell id="1" parent="0" />
        <mxCell id="9iAvSKcutoEszffnvEX6-1" value="" style="aspect=fixed;html=1;points=[];align=center;image;fontSize=12;image=img/lib/azure2/databases/Azure_Database_PostgreSQL_Server.svg;" parent="1" vertex="1">
          <mxGeometry x="160" y="30" width="67.5" height="90" as="geometry" />
        </mxCell>
        <mxCell id="9iAvSKcutoEszffnvEX6-3" value="" style="endArrow=none;html=1;rounded=0;entryX=0;entryY=0.5;entryDx=0;entryDy=0;exitX=0.978;exitY=0.544;exitDx=0;exitDy=0;exitPerimeter=0;" parent="1" source="9iAvSKcutoEszffnvEX6-1" target="9iAvSKcutoEszffnvEX6-4" edge="1">
          <mxGeometry width="50" height="50" relative="1" as="geometry">
            <mxPoint x="390" y="200" as="sourcePoint" />
            <mxPoint x="360" y="70" as="targetPoint" />
          </mxGeometry>
        </mxCell>
        <mxCell id="9iAvSKcutoEszffnvEX6-4" value="Sistema de Chat" style="ellipse;whiteSpace=wrap;html=1;fillColor=#d5e8d4;strokeColor=#82b366;" parent="1" vertex="1">
          <mxGeometry x="400" y="40" width="120" height="80" as="geometry" />
        </mxCell>
        <mxCell id="9iAvSKcutoEszffnvEX6-5" value="PK ChaveEdital&lt;br&gt;NumeroPregao&lt;br&gt;Lote&lt;br&gt;NomeSistema" style="rounded=0;whiteSpace=wrap;html=1;" parent="1" vertex="1">
          <mxGeometry x="40" y="200" width="120" height="60" as="geometry" />
        </mxCell>
        <mxCell id="9iAvSKcutoEszffnvEX6-8" value="Pregão 1" style="aspect=fixed;html=1;points=[];align=center;image;fontSize=12;image=img/lib/azure2/app_services/App_Service_Domains.svg;" parent="1" vertex="1">
          <mxGeometry x="273.75" y="690" width="112.5" height="90" as="geometry" />
        </mxCell>
        <mxCell id="9iAvSKcutoEszffnvEX6-9" value="Bot&lt;br&gt;BBMNET" style="ellipse;whiteSpace=wrap;html=1;fillColor=#dae8fc;strokeColor=#6c8ebf;" parent="1" vertex="1">
          <mxGeometry x="400" y="520" width="120" height="80" as="geometry" />
        </mxCell>
        <mxCell id="9iAvSKcutoEszffnvEX6-10" value="Pregão 3" style="aspect=fixed;html=1;points=[];align=center;image;fontSize=12;image=img/lib/azure2/app_services/App_Service_Domains.svg;" parent="1" vertex="1">
          <mxGeometry x="533.75" y="690" width="112.5" height="90" as="geometry" />
        </mxCell>
        <mxCell id="9iAvSKcutoEszffnvEX6-11" value="Pregão 2" style="aspect=fixed;html=1;points=[];align=center;image;fontSize=12;image=img/lib/azure2/app_services/App_Service_Domains.svg;" parent="1" vertex="1">
          <mxGeometry x="403.75" y="690" width="112.5" height="90" as="geometry" />
        </mxCell>
        <mxCell id="9iAvSKcutoEszffnvEX6-13" value="Endpoint&lt;br&gt;recebeRequisicao&lt;br&gt;JSON" style="rounded=0;whiteSpace=wrap;html=1;fillColor=#dae8fc;strokeColor=#6c8ebf;" parent="1" vertex="1">
          <mxGeometry x="360" y="390" width="200" height="60" as="geometry" />
        </mxCell>
        <mxCell id="9iAvSKcutoEszffnvEX6-14" value="" style="endArrow=none;html=1;rounded=0;entryX=0.5;entryY=1;entryDx=0;entryDy=0;exitX=0.5;exitY=0;exitDx=0;exitDy=0;" parent="1" source="9iAvSKcutoEszffnvEX6-9" target="9iAvSKcutoEszffnvEX6-13" edge="1">
          <mxGeometry width="50" height="50" relative="1" as="geometry">
            <mxPoint x="390" y="540" as="sourcePoint" />
            <mxPoint x="440" y="490" as="targetPoint" />
          </mxGeometry>
        </mxCell>
        <mxCell id="9iAvSKcutoEszffnvEX6-15" value="" style="endArrow=classic;startArrow=classic;html=1;rounded=0;exitX=0.453;exitY=-0.011;exitDx=0;exitDy=0;exitPerimeter=0;entryX=0;entryY=1;entryDx=0;entryDy=0;" parent="1" source="9iAvSKcutoEszffnvEX6-8" target="9iAvSKcutoEszffnvEX6-9" edge="1">
          <mxGeometry width="50" height="50" relative="1" as="geometry">
            <mxPoint x="390" y="540" as="sourcePoint" />
            <mxPoint x="440" y="490" as="targetPoint" />
          </mxGeometry>
        </mxCell>
        <mxCell id="9iAvSKcutoEszffnvEX6-16" value="" style="endArrow=classic;startArrow=classic;html=1;rounded=0;exitX=0.489;exitY=-0.011;exitDx=0;exitDy=0;exitPerimeter=0;entryX=0.5;entryY=1;entryDx=0;entryDy=0;" parent="1" source="9iAvSKcutoEszffnvEX6-11" target="9iAvSKcutoEszffnvEX6-9" edge="1">
          <mxGeometry width="50" height="50" relative="1" as="geometry">
            <mxPoint x="390" y="540" as="sourcePoint" />
            <mxPoint x="440" y="490" as="targetPoint" />
          </mxGeometry>
        </mxCell>
        <mxCell id="9iAvSKcutoEszffnvEX6-18" value="" style="endArrow=classic;startArrow=classic;html=1;rounded=0;exitX=0.489;exitY=0;exitDx=0;exitDy=0;exitPerimeter=0;entryX=1;entryY=1;entryDx=0;entryDy=0;" parent="1" source="9iAvSKcutoEszffnvEX6-10" target="9iAvSKcutoEszffnvEX6-9" edge="1">
          <mxGeometry width="50" height="50" relative="1" as="geometry">
            <mxPoint x="390" y="540" as="sourcePoint" />
            <mxPoint x="440" y="490" as="targetPoint" />
          </mxGeometry>
        </mxCell>
        <mxCell id="9iAvSKcutoEszffnvEX6-19" value="Endpoint&lt;br&gt;enviaRequisicaoChat&lt;br&gt;JSON" style="rounded=0;whiteSpace=wrap;html=1;fillColor=#d5e8d4;strokeColor=#82b366;" parent="1" vertex="1">
          <mxGeometry x="360" y="160" width="200" height="60" as="geometry" />
        </mxCell>
        <mxCell id="9iAvSKcutoEszffnvEX6-20" value="" style="endArrow=none;html=1;rounded=0;entryX=0.5;entryY=1;entryDx=0;entryDy=0;exitX=0.5;exitY=0;exitDx=0;exitDy=0;" parent="1" source="9iAvSKcutoEszffnvEX6-19" target="9iAvSKcutoEszffnvEX6-4" edge="1">
          <mxGeometry width="50" height="50" relative="1" as="geometry">
            <mxPoint x="400" y="220" as="sourcePoint" />
            <mxPoint x="450" y="170" as="targetPoint" />
          </mxGeometry>
        </mxCell>
        <mxCell id="9iAvSKcutoEszffnvEX6-21" value="Envia:&lt;br&gt;ChaveEdital&lt;br&gt;Lote&lt;br&gt;Credenciais" style="endArrow=classic;html=1;rounded=0;exitX=0.25;exitY=1;exitDx=0;exitDy=0;entryX=0.25;entryY=0;entryDx=0;entryDy=0;fillColor=#d5e8d4;strokeColor=#82b366;strokeWidth=3;" parent="1" source="9iAvSKcutoEszffnvEX6-19" target="9iAvSKcutoEszffnvEX6-13" edge="1">
          <mxGeometry width="50" height="50" relative="1" as="geometry">
            <mxPoint x="400" y="320" as="sourcePoint" />
            <mxPoint x="450" y="270" as="targetPoint" />
          </mxGeometry>
        </mxCell>
        <mxCell id="9iAvSKcutoEszffnvEX6-22" value="Recebe:&lt;br&gt;ChaveEdital&lt;br&gt;Lote&lt;br&gt;Mensagens" style="endArrow=classic;html=1;rounded=0;entryX=0.75;entryY=1;entryDx=0;entryDy=0;exitX=0.75;exitY=0;exitDx=0;exitDy=0;fillColor=#dae8fc;strokeColor=#6c8ebf;strokeWidth=3;" parent="1" source="9iAvSKcutoEszffnvEX6-13" target="9iAvSKcutoEszffnvEX6-19" edge="1">
          <mxGeometry width="50" height="50" relative="1" as="geometry">
            <mxPoint x="400" y="320" as="sourcePoint" />
            <mxPoint x="450" y="270" as="targetPoint" />
          </mxGeometry>
        </mxCell>
        <mxCell id="9iAvSKcutoEszffnvEX6-23" value="Mensagens&lt;br&gt;FK ChaveEdital" style="rounded=0;whiteSpace=wrap;html=1;" parent="1" vertex="1">
          <mxGeometry x="40" y="280" width="120" height="60" as="geometry" />
        </mxCell>
        <mxCell id="9iAvSKcutoEszffnvEX6-24" value="PK ID&lt;br&gt;Credenciais&lt;br&gt;NomeSistema" style="rounded=0;whiteSpace=wrap;html=1;" parent="1" vertex="1">
          <mxGeometry x="40" y="360" width="120" height="60" as="geometry" />
        </mxCell>
        <mxCell id="9iAvSKcutoEszffnvEX6-25" value="" style="endArrow=none;html=1;rounded=0;exitX=1;exitY=0.5;exitDx=0;exitDy=0;entryX=0.533;entryY=1;entryDx=0;entryDy=0;entryPerimeter=0;" parent="1" source="9iAvSKcutoEszffnvEX6-5" target="9iAvSKcutoEszffnvEX6-1" edge="1">
          <mxGeometry width="50" height="50" relative="1" as="geometry">
            <mxPoint x="400" y="500" as="sourcePoint" />
            <mxPoint x="450" y="450" as="targetPoint" />
            <Array as="points">
              <mxPoint x="196" y="230" />
            </Array>
          </mxGeometry>
        </mxCell>
        <mxCell id="9iAvSKcutoEszffnvEX6-26" value="" style="endArrow=none;html=1;rounded=0;exitX=1;exitY=0.5;exitDx=0;exitDy=0;entryX=0.533;entryY=0.989;entryDx=0;entryDy=0;entryPerimeter=0;" parent="1" source="9iAvSKcutoEszffnvEX6-23" target="9iAvSKcutoEszffnvEX6-1" edge="1">
          <mxGeometry width="50" height="50" relative="1" as="geometry">
            <mxPoint x="400" y="500" as="sourcePoint" />
            <mxPoint x="450" y="450" as="targetPoint" />
            <Array as="points">
              <mxPoint x="196" y="310" />
            </Array>
          </mxGeometry>
        </mxCell>
        <mxCell id="9iAvSKcutoEszffnvEX6-28" value="" style="endArrow=none;html=1;rounded=0;exitX=1;exitY=0.5;exitDx=0;exitDy=0;entryX=0.535;entryY=0.989;entryDx=0;entryDy=0;entryPerimeter=0;" parent="1" source="9iAvSKcutoEszffnvEX6-24" target="9iAvSKcutoEszffnvEX6-1" edge="1">
          <mxGeometry width="50" height="50" relative="1" as="geometry">
            <mxPoint x="400" y="500" as="sourcePoint" />
            <mxPoint x="450" y="450" as="targetPoint" />
            <Array as="points">
              <mxPoint x="196" y="390" />
            </Array>
          </mxGeometry>
        </mxCell>
      </root>
    </mxGraphModel>
  </diagram>
</mxfile>
